<?xml version="1.0" encoding="utf-8"?>
<!-- Generator: Adobe Illustrator 22.1.0, SVG Export Plug-In . SVG Version: 6.00 Build 0)  -->
<svg version="1.1" id="Capa_1" xmlns="http://www.w3.org/2000/svg" xmlns:xlink="http://www.w3.org/1999/xlink" x="0px" y="0px"
	 viewBox="0 0 21.4 21.4" style="enable-background:new 0 0 21.4 21.4;" xml:space="preserve">
<style type="text/css">
	.st0{fill:#666666;}
</style>
<g>
	<g>
		<path class="st0" d="M5.3,1.5C3.8,2.3,2.8,4.1,4,6.2l0,0l7.8,13.4c0.4,0.7,1.1,1.1,2,1.1l0,0c1.1,0,2.3-0.7,2.8-1.7l0,0
			c0.4-0.7,0.4-1.6,0-2.3l0,0l-5.8-10c-0.4-0.6-1-1-1.7-1l0,0c-0.8,0-1.6,0.5-2,1.2l0,0c-0.3,0.6-0.3,1.2,0,1.8l0,0l4.9,8.5
			c0.1,0.2,0.4,0.3,0.7,0.2l0,0c0.2-0.1,0.3-0.4,0.2-0.7l0,0L8,8.3C7.9,8.1,7.9,7.8,8,7.5l0,0c0.2-0.4,0.7-0.7,1.2-0.7l0,0
			C9.6,6.8,9.8,7,10,7.3l0,0l5.8,10c0.2,0.4,0.2,0.9,0,1.3l0,0c-0.4,0.7-1.2,1.2-2,1.2l0,0c-0.5,0-0.9-0.2-1.1-0.6l0,0L4.9,5.7
			C4,4.2,4.7,2.9,5.8,2.3l0,0c1.1-0.6,2.6-0.6,3.5,0.9l0,0l6,10.3c0.1,0.2,0.4,0.3,0.7,0.2l0,0c0.2-0.1,0.3-0.4,0.2-0.7l0,0l-6-10.3
			C9.5,1.7,8.7,1.2,7.8,1l0,0C7,0.8,6,1,5.3,1.5L5.3,1.5z"/>
	</g>
</g>
</svg>
