<?xml version="1.0" encoding="iso-8859-1"?>
<!-- Generator: Adobe Illustrator 18.1.1, SVG Export Plug-In . SVG Version: 6.00 Build 0)  -->
<svg version="1.1" id="Capa_1" xmlns="http://www.w3.org/2000/svg" xmlns:xlink="http://www.w3.org/1999/xlink" x="0px" y="0px"
	 viewBox="0 0 21.391 21.391" style="enable-background:new 0 0 21.391 21.391;" xml:space="preserve">
<g>
	<g>
		<path style="fill:#010002;" d="M10.627,0C8.963,0.003,7.174,1.098,7.18,3.49l0,0l0.05,15.527c0.003,0.836,0.414,1.531,1.159,1.959
			l0,0c0.971,0.557,2.323,0.553,3.29-0.01l0,0c0.743-0.432,1.149-1.13,1.147-1.965l0,0L12.787,7.39
			c-0.002-0.711-0.35-1.319-0.956-1.666l0,0c-0.711-0.408-1.657-0.409-2.356-0.003l0,0C8.912,6.048,8.589,6.61,8.592,7.262l0,0
			l0.03,9.793c0.001,0.27,0.22,0.488,0.492,0.487l0,0c0.271-0.001,0.488-0.221,0.487-0.491l0,0l-0.03-9.794
			c0-0.304,0.132-0.537,0.397-0.691l0,0c0.394-0.228,0.972-0.226,1.376,0.006l0,0c0.308,0.176,0.464,0.452,0.464,0.819l0,0
			l0.036,11.612c0.003,0.484-0.219,0.861-0.659,1.116l0,0c-0.657,0.382-1.65,0.385-2.31,0.006l0,0
			c-0.442-0.253-0.666-0.626-0.668-1.111l0,0L8.159,3.484C8.154,1.756,9.396,0.98,10.63,0.977l0,0
			c1.231-0.003,2.561,0.776,2.564,2.494l0,0l0.039,11.892c0,0.27,0.221,0.488,0.491,0.488l0,0c0.271,0,0.489-0.221,0.488-0.492l0,0
			L14.175,3.467c-0.004-1.145-0.454-2.016-1.123-2.598l0,0C12.388,0.292,11.505-0.003,10.627,0L10.627,0z"/>
	</g>
</g>
<g>
</g>
<g>
</g>
<g>
</g>
<g>
</g>
<g>
</g>
<g>
</g>
<g>
</g>
<g>
</g>
<g>
</g>
<g>
</g>
<g>
</g>
<g>
</g>
<g>
</g>
<g>
</g>
<g>
</g>
</svg>
