<?xml version="1.0" encoding="utf-8"?>
<!-- Generator: Adobe Illustrator 22.1.0, SVG Export Plug-In . SVG Version: 6.00 Build 0)  -->
<svg version="1.1" id="Capa_1" xmlns="http://www.w3.org/2000/svg" xmlns:xlink="http://www.w3.org/1999/xlink" x="0px" y="0px"
	 viewBox="0 0 21.4 21.4" style="enable-background:new 0 0 21.4 21.4;" xml:space="preserve">
<style type="text/css">
	.st0{fill:#666666;stroke:#666666;stroke-width:0.5;stroke-miterlimit:10;}
	.st1{fill:#666666;}
</style>
<g>
	<path class="st0" d="M20,12.8c-0.3,0-0.5,0.2-0.5,0.5V18c0,0.9-0.7,1.6-1.6,1.6H3.2c-0.9,0-1.6-0.7-1.6-1.6V4.2
		c0-0.9,0.7-1.6,1.6-1.6h4.7c0.3,0,0.5-0.2,0.5-0.5S8.1,1.6,7.8,1.6H3.2c-1.4,0-2.6,1.2-2.6,2.6V18c0,1.5,1.2,2.6,2.6,2.6h14.7
		c1.4,0,2.6-1.2,2.6-2.6v-4.7C20.5,13,20.3,12.8,20,12.8z"/>
	<path class="st1" d="M8.8,10l8.2-8.2l2.6,2.6l-8.2,8.2L8.8,10z"/>
	<path class="st1" d="M7.4,14l2.9-0.8L8.2,11L7.4,14z"/>
	<path class="st1" d="M20.3,0.4c-0.5-0.5-1.4-0.5-2,0L17.7,1l2.6,2.6l0.6-0.6c0.5-0.5,0.5-1.4,0-2L20.3,0.4z"/>
</g>
</svg>
