<?xml version="1.0" encoding="utf-8"?>
<!-- Generator: Adobe Illustrator 22.1.0, SVG Export Plug-In . SVG Version: 6.00 Build 0)  -->
<svg version="1.1" id="Layer_1" xmlns="http://www.w3.org/2000/svg" xmlns:xlink="http://www.w3.org/1999/xlink" x="0px" y="0px"
	 viewBox="0 0 512 512" style="enable-background:new 0 0 512 512;" xml:space="preserve">
<style type="text/css">
	.st0{fill:#333333;}
</style>
<g>
	<g>
		<path class="st0" d="M489.4,44.9H22.6C10.1,44.9,0,55,0,67.5v377.1c0,12.5,10.1,22.6,22.6,22.6h466.8c12.5,0,22.6-10.1,22.6-22.6
			V67.5C512,55,501.9,44.9,489.4,44.9z M489.4,444.5l-466.8,0c0,0,0,0,0,0V67.5h466.8V444.5z"/>
	</g>
</g>
<g>
	<g>
		<path class="st0" d="M447,98.6H65c-6.2,0-11.3,5.1-11.3,11.3v249.8c0,6.2,5.1,11.3,11.3,11.3h382c6.2,0,11.3-5.1,11.3-11.3V109.9
			C458.3,103.6,453.2,98.6,447,98.6z M76.3,121.2h359.3v191.3l-71.2-71.2c-4.4-4.4-11.6-4.4-16,0L305,284.7l-99.6-99.6
			c-4.4-4.4-11.6-4.4-16,0L76.3,298.3L76.3,121.2L76.3,121.2z M76.3,348.4v-18.1l121.2-121.1l139.2,139.2H76.3z M435.7,348.4h-67v0
			L321,300.7l35.4-35.4l76.6,76.6c0.8,0.8,1.7,1.4,2.6,1.9L435.7,348.4L435.7,348.4z"/>
	</g>
</g>
<g>
	<g>
		<path class="st0" d="M304.3,142.6c-23.6,0-42.7,19.2-42.7,42.7s19.2,42.7,42.7,42.7s42.7-19.2,42.7-42.7S327.9,142.6,304.3,142.6z
			 M304.3,205.5c-11.1,0-20.1-9-20.1-20.1c0-11.1,9-20.1,20.1-20.1c11.1,0,20.1,9,20.1,20.1C324.5,196.5,315.4,205.5,304.3,205.5z"
			/>
	</g>
</g>
<g>
	<g>
		<path class="st0" d="M163.3,396.5H65c-6.2,0-11.3,5.1-11.3,11.3c0,6.2,5.1,11.3,11.3,11.3h98.3c6.2,0,11.3-5.1,11.3-11.3
			S169.6,396.5,163.3,396.5z"/>
	</g>
</g>
<g>
	<g>
		<path class="st0" d="M240.7,396.5h-25.8c-6.2,0-11.3,5.1-11.3,11.3s5.1,11.3,11.3,11.3h25.8c6.2,0,11.3-5.1,11.3-11.3
			S246.9,396.5,240.7,396.5z"/>
	</g>
</g>
</svg>
