<?xml version="1.0" encoding="utf-8"?>
<!-- Generator: Adobe Illustrator 22.1.0, SVG Export Plug-In . SVG Version: 6.00 Build 0)  -->
<svg version="1.1" id="Capa_1" xmlns="http://www.w3.org/2000/svg" xmlns:xlink="http://www.w3.org/1999/xlink" x="0px" y="0px"
	 viewBox="0 0 420 420" style="enable-background:new 0 0 420 420;" xml:space="preserve">
<style type="text/css">
	.st0{fill:#FDC02F;}
	.st1{display:none;}
	.st2{display:inline;}
	.st3{fill:none;stroke:#FFFFFF;stroke-width:22;stroke-linecap:round;stroke-miterlimit:10;}
	.st4{fill:#FFFFFF;}
</style>
<title>newChat</title>
<g id="Capa_2_1_">
	<g id="Capa_1-2">
		<circle class="st0" cx="210" cy="210" r="210"/>
		<g class="st1">
			<g class="st2">
				<g>
					<g>
						<g>
							<line class="st3" x1="239.7" y1="161.2" x2="345.9" y2="161.2"/>
						</g>
					</g>
					<g>
						<g>
							<line class="st3" x1="292.8" y1="108.2" x2="292.8" y2="214.3"/>
						</g>
					</g>
				</g>
			</g>
		</g>
	</g>
</g>
<g>
	<g>
		<path class="st4" d="M324,204c-2.2-0.2-4.2,1.3-4.7,3.4c-1.9,9.4-6.6,18.4-14.1,26.9c-10,11.4-23.5,20.4-40.5,27
			c-17,6.6-35.2,10-54.8,10c-9.6,0-19.3-0.9-29.3-2.7l-8.4-1.6c-1.1-0.2-2.3,0-3.3,0.7l-6.9,4.9c-0.1,0-0.1,0.1-0.2,0.1
			c-3.6,2.4-8.1-1.3-6.4-5.3l0,0c0.8-2,0.1-4.3-1.8-5.4l-15.3-8.8c-12.3-7.1-21.8-15.6-28.5-25.3c-6.8-9.7-10.2-19.8-10.2-30.3
			c0-13,5-25.2,15-36.6c10-11.4,23.5-20.4,40.5-27c17-6.6,35.2-10,54.8-10c14.6,0,28.4,1.8,41.5,5.5c2.9,0.8,5.7-1.6,5.4-4.6
			c-0.2-2.2-0.4-4.4-0.5-6.6c-0.1-3.1,0-6.1,0.2-9.1c0.2-2.2-1.2-4.1-3.3-4.6c-13.8-3.4-28.3-5.1-43.4-5.1c-24.4,0-47,4.4-67.7,13.1
			c-20.7,8.7-37.1,20.7-49.1,35.7c-12,15.1-18,31.5-18,49.2c0,15.2,4.5,29.5,13.6,42.9c8.4,12.5,19.8,23.2,34.2,32
			c0.6,2.1,1,3.4,1.7,5.4c-0.8,1.7-1.6,3.4-2.4,4.9c-1.3,2.6-2.9,5-4.8,7.4c-1.9,2.4-3.3,4.2-4.3,5.6c-1,1.3-2.7,3.2-5,5.7
			c-2.3,2.4-3.8,4-4.4,4.8c0-0.1-0.3,0.2-0.8,0.9c-0.5,0.7-0.8,1-0.9,1c-0.1-0.1-0.3,0.3-0.8,1c-0.3,0.4-0.4,0.7-0.6,0.9
			c-0.1,0.1-0.1,0.2-0.2,0.4l-0.4,0.8c-0.2,0.4-0.3,0.8-0.4,1.1c-0.1,0.4-0.1,0.8-0.1,1.2s0.1,0.9,0.2,1.2c0.3,1.7,1,3,2.2,4
			c1.2,1,2.5,1.5,3.9,1.5h0.6c6.4-0.9,11.9-1.9,16.5-3.1c19.1-5,36.3-12.8,51.8-23.5c1.1-0.2,2.1-0.5,3.2-0.7
			c10.9,1.8,21.5,2.8,32,2.8c24.4,0,47-4.4,67.7-13.1c20.8-8.7,37.1-20.7,49.1-35.7c8.6-10.8,16-26.1,18.9-39.2
			c0.6-2.9-1.7-5.6-4.7-5.3C335.4,203.1,329.3,204.4,324,204z"/>
	</g>
</g>
<path class="st4" d="M335.1,148H306v-29.2c0-7.2-6-13-13.2-13s-13.2,5.9-13.2,13V148h-29.2c-7.2,0-13,6-13,13.2
	c0,7.2,5.9,13.2,13,13.2h29.2v29.2c0,7.2,6,13,13.2,13s13.2-5.9,13.2-13v-29.2h29.2c7.2,0,13-6,13-13.2
	C348.2,154.1,342.3,148,335.1,148z"/>
</svg>
