<?xml version="1.0" encoding="utf-8"?>
<!-- Generator: Adobe Illustrator 22.1.0, SVG Export Plug-In . SVG Version: 6.00 Build 0)  -->
<svg version="1.1" id="Capa_1" xmlns="http://www.w3.org/2000/svg" xmlns:xlink="http://www.w3.org/1999/xlink" x="0px" y="0px"
	 viewBox="0 0 420 420" style="enable-background:new 0 0 420 420;" xml:space="preserve">
<style type="text/css">
	.st0{fill:#FFFFFF;}
	.st1{fill:#606060;stroke:#606060;stroke-width:4;stroke-miterlimit:10;}
	.st2{fill:#606060;stroke:#606060;stroke-width:10;stroke-miterlimit:10;}
	.st3{fill:#606060;stroke:#606060;stroke-width:6;stroke-miterlimit:10;}
</style>
<title>sendMessage</title>
<g id="Capa_2_1_">
	<g id="Capa_1-2">
		<circle class="st0" cx="210" cy="210" r="210"/>
	</g>
</g>
<g>
	<g>
		<g>
			<path class="st1" d="M298.3,258c-3.8-3.4-9.5-3-12.9,0.7c-19,21.3-46.5,33.5-75.4,33.5s-56.3-12.2-75.4-33.5
				c-3.4-3.8-9.1-4.1-12.9-0.7s-4.1,9.1-0.7,12.9c22.5,25.1,54.9,39.6,89,39.6c34,0,66.5-14.4,89-39.6
				C302.3,267.1,302,261.3,298.3,258z"/>
			<path class="st2" d="M210,0C94.2,0,0,94.2,0,210s94.2,210,210,210s210-94.2,210-210S325.8,0,210,0z M210,401.7
				c-105.7,0-191.7-86-191.7-191.7S104.3,18.3,210,18.3s191.7,86,191.7,191.7S315.7,401.7,210,401.7z"/>
			<path class="st3" d="M283,146.1c-25.2,0-45.7,20.5-45.7,45.7c0,5,4.1,9.1,9.1,9.1s9.1-4.1,9.1-9.1c0-15.1,12.3-27.4,27.4-27.4
				s27.4,12.3,27.4,27.4c0,5,4.1,9.1,9.1,9.1s9.1-4.1,9.1-9.1C328.7,166.6,308.2,146.1,283,146.1z"/>
			<path class="st3" d="M164.3,191.7c0,5,4.1,9.1,9.1,9.1s9.1-4.1,9.1-9.1c0-25.2-20.5-45.7-45.7-45.7s-45.7,20.5-45.7,45.7
				c0,5,4.1,9.1,9.1,9.1s9.1-4.1,9.1-9.1c0-15.1,12.3-27.4,27.4-27.4C152.1,164.3,164.3,176.6,164.3,191.7z"/>
		</g>
	</g>
</g>
</svg>
