<?xml version="1.0" encoding="utf-8"?>
<!-- Generator: Adobe Illustrator 22.1.0, SVG Export Plug-In . SVG Version: 6.00 Build 0)  -->
<svg version="1.1" id="Capa_1" xmlns="http://www.w3.org/2000/svg" xmlns:xlink="http://www.w3.org/1999/xlink" x="0px" y="0px"
	 viewBox="0 0 488.3 488.3" style="enable-background:new 0 0 488.3 488.3;" xml:space="preserve">
<style type="text/css">
	.st0{fill:#333333;}
</style>
<g>
	<g>
		<path class="st0" d="M314.2,85.4h-227c-21.3,0-38.6,17.3-38.6,38.6v325.7c0,21.3,17.3,38.6,38.6,38.6h227
			c21.3,0,38.6-17.3,38.6-38.6V124C352.8,102.7,335.5,85.4,314.2,85.4z M325.8,449.6c0,6.4-5.2,11.6-11.6,11.6h-227
			c-6.4,0-11.6-5.2-11.6-11.6V124c0-6.4,5.2-11.6,11.6-11.6h227c6.4,0,11.6,5.2,11.6,11.6V449.6z"/>
		<path class="st0" d="M401,0H174c-21.3,0-38.6,17.3-38.6,38.6c0,7.5,6,13.5,13.5,13.5s13.5-6,13.5-13.5c0-6.4,5.2-11.6,11.6-11.6
			h227c6.4,0,11.6,5.2,11.6,11.6v325.7c0,6.4-5.2,11.6-11.6,11.6c-7.5,0-13.5,6-13.5,13.5s6,13.5,13.5,13.5
			c21.3,0,38.6-17.3,38.6-38.6V38.6C439.6,17.3,422.4,0,401,0z"/>
	</g>
</g>
</svg>
