<?xml version="1.0" encoding="utf-8"?>
<!-- Generator: Adobe Illustrator 22.1.0, SVG Export Plug-In . SVG Version: 6.00 Build 0)  -->
<svg version="1.1" id="Capa_1" xmlns="http://www.w3.org/2000/svg" xmlns:xlink="http://www.w3.org/1999/xlink" x="0px" y="0px"
	 viewBox="0 0 58 58" style="enable-background:new 0 0 58 58;" xml:space="preserve">
<style type="text/css">
	.st0{fill:#333333;}
</style>
<g>
	<path class="st0" d="M36.5,28.2l-11-7c-0.3-0.2-0.7-0.2-1,0C24.2,21.3,24,21.6,24,22v14c0,0.4,0.2,0.7,0.5,0.9
		C24.7,37,24.8,37,25,37c0.2,0,0.4-0.1,0.5-0.2l11-7c0.3-0.2,0.5-0.5,0.5-0.8S36.8,28.3,36.5,28.2z M26,34.2V23.8l8.1,5.2L26,34.2z"
		/>
	<path class="st0" d="M57,6H47H11H1C0.4,6,0,6.4,0,7v11v11v11v11c0,0.6,0.4,1,1,1h10h36h10c0.6,0,1-0.4,1-1V40V29V18V7
		C58,6.4,57.6,6,57,6z M10,28H2v-9h8V28z M2,30h8v9H2V30z M12,40V29V18V8h34v10v11v11v10H12V40z M56,28h-8v-9h8V28z M48,30h8v9h-8
		V30z M56,8v9h-8V8H56z M2,8h8v9H2V8z M2,50v-9h8v9H2z M56,50h-8v-9h8V50z"/>
</g>
</svg>
