<?xml version="1.0" encoding="utf-8"?>
<!-- Generator: Adobe Illustrator 22.1.0, SVG Export Plug-In . SVG Version: 6.00 Build 0)  -->
<svg version="1.1" id="Layer_1" xmlns="http://www.w3.org/2000/svg" xmlns:xlink="http://www.w3.org/1999/xlink" x="0px" y="0px"
	 viewBox="0 0 110.5 99" style="enable-background:new 0 0 110.5 99;" xml:space="preserve">
<style type="text/css">
	.st0{fill:#FFFFFF;}
	.st1{fill:#FFC107;}
</style>
<title>icon/Solid Active</title>
<desc>Created with Sketch.</desc>
<g id="solid-logo" transform="translate(0.000000, 1.100000)">
	
		<image style="overflow:visible;opacity:0.3;" width="212" height="202" xlink:href="BA741A94D51FA2AE.png"  transform="matrix(1 0 0 1 -51 -52.1)">
	</image>
	<g>
		<g>
			<g>
				<g>
					<path class="st0" d="M99.1,44.2c1.5,3,1.5,6.4-0.4,9.5L80.5,85.1c-1.5,2.7-4.5,4.5-8,4.5h-36c-3,0-6.4-1.5-8-4.5L10.4,53.7
						c-1.5-3-1.5-6.4,0-9.5l18.2-31.4c1.5-2.7,4.9-4.5,8-4.5h36.4c3,0,6.4,1.9,8,4.5L99.1,44.2z M96.4,53.3c1.5-2.7,1.5-6.1,0-8.7
						L79.4,15c-1.5-3-4.5-4.5-7.6-4.5H37.7c-3,0-6.1,1.9-7.6,4.5l-17,29.5c-1.5,2.7-1.5,6.1,0,8.7l17,29.5c1.5,3,4.5,4.5,7.6,4.5
						h34.1c3,0,6.1-1.9,7.6-4.5L96.4,53.3z"/>
					<path class="st1" d="M96.4,44.6c1.5,2.7,1.5,6.1,0,8.7l-17,29.5c-1.5,2.7-4.5,4.5-7.6,4.5H37.7c-3,0-6.1-1.5-7.6-4.5l-17-29.5
						c-1.5-2.7-1.5-6.1,0-8.7l17-29.5c1.5-2.7,4.5-4.5,7.6-4.5h34.1c3,0,6.1,1.5,7.6,4.5L96.4,44.6z"/>
				</g>
			</g>
			<g>
				<g>
					<g>
						<g>
							<path class="st0" d="M66.1,75.9c0,0.8,0.4,3.5-11.7,3.7v0c-0.1,0-0.2,0-0.3,0s-0.2,0-0.3,0v0c-12.1-0.2-11.7-2.9-11.7-3.7
								c0-0.8,0.3-0.9,0.3-0.9s0-8.1,0-8.7c0-0.6,0.5-0.8,0.5-0.8s0-36.3,0-36.8c0-0.5,0.3-0.7,0.3-0.7s-2.9-0.8-0.7-4.7
								c1.9-3.3,9.1-3.8,11.3-3.9v0c0,0,0.1,0,0.3,0c0.2,0,0.3,0,0.3,0v0c2.2,0.1,9.4,0.6,11.3,3.9C67.9,27.2,65,28,65,28
								s0.3,0.2,0.3,0.7c0,0.5,0,36.8,0,36.8s0.5,0.2,0.5,0.8c0,0.6,0,8.7,0,8.7S66.1,75.1,66.1,75.9z M61,38.1v-5.1v-0.2
								c0-0.1,0-0.1,0-0.2v-0.3c0-0.3-0.2-0.6-0.5-0.7l-6.1-1.6c-0.1-0.1-0.2-0.1-0.4,0l-5.8,1.4c-0.3,0.1-0.5,0.4-0.5,0.7v0.6v0.1
								v5.2c0,0.2,0.2,0.4,0.4,0.4h12.6C60.9,38.5,61,38.3,61,38.1z"/>
							<path class="st1" d="M61,33.1v5.1c0,0.2-0.2,0.4-0.4,0.4H48.1c-0.2,0-0.4-0.2-0.4-0.4v-5.2v-0.1c0-0.2,0.2-0.4,0.4-0.4h12.6
								c0.1,0,0.2,0,0.2,0.1c0.1,0.1,0.1,0.2,0.1,0.3v-0.2c0,0.1,0,0.1,0,0.2V33.1z M60.4,36.2v-2.3c0-0.2-0.1-0.3-0.3-0.3H48.6
								c-0.1,0-0.3,0.1-0.3,0.3v2.3c0,0.1,0.1,0.2,0.3,0.2h11.6C60.3,36.5,60.4,36.4,60.4,36.2z"/>
							<path class="st1" d="M61,32.7v0.2c0-0.1,0-0.2-0.1-0.3C60.9,32.6,61,32.6,61,32.7z"/>
							<path class="st1" d="M61,32.4v0.3c0-0.1-0.1-0.1-0.1-0.1c-0.1-0.1-0.1-0.1-0.2-0.1H48.1c-0.2,0-0.4,0.2-0.4,0.4v-0.6
								c0-0.3,0.2-0.6,0.5-0.7l5.8-1.4c0.1,0,0.2,0,0.4,0l6.1,1.6C60.8,31.8,61,32.1,61,32.4z"/>
							<path class="st0" d="M60.4,33.9v2.3c0,0.1-0.1,0.2-0.3,0.2H48.6c-0.1,0-0.3-0.1-0.3-0.2v-2.3c0-0.1,0.1-0.3,0.3-0.3h11.6
								C60.3,33.7,60.4,33.8,60.4,33.9z"/>
						</g>
					</g>
				</g>
			</g>
		</g>
	</g>
</g>
</svg>
