<?xml version="1.0" encoding="utf-8"?>
<!-- Generator: Adobe Illustrator 22.1.0, SVG Export Plug-In . SVG Version: 6.00 Build 0)  -->
<svg version="1.1" id="bf3a6a45-788d-419e-aadb-caa55b0ea27e"
	 xmlns="http://www.w3.org/2000/svg" xmlns:xlink="http://www.w3.org/1999/xlink" x="0px" y="0px" viewBox="0 0 1094.5 635.9"
	 style="enable-background:new 0 0 1094.5 635.9;" xml:space="preserve">
<style type="text/css">
	.st0{opacity:0.1;fill:#FFC107;enable-background:new    ;}
	.st1{fill:#2F2E41;}
	.st2{fill:#3F3D56;}
	.st3{opacity:0.1;enable-background:new    ;}
	.st4{fill:#FBBEBE;}
	.st5{fill:#D0D2D5;}
	.st6{fill:#FFC107;}
	.st7{fill:#3F2B00;}
	.st8{opacity:0.1;}
	.st9{fill:#BBBDC0;}
	.st10{opacity:0.2;fill:#FFFFFF;enable-background:new    ;}
</style>
<title>sculpting</title>
<path class="st0" d="M1094.5,214.2c0.1-95-76.1-173.4-171-175.8c-78.5-2.1-148.8,48.1-172.3,123c-24.2-3.9-49-2.8-72.8,3.4
	c-86,22.4-176.2,22.4-262.2,0c-23.8-6.1-48.6-7.3-72.8-3.4c-23.5-74.9-93.8-125.1-172.3-123c-95,2.4-171.2,80.9-171,175.8
	c0.1,63.6,34.5,122.2,90.1,153.2c-17.4,27.8-26.6,60-26.5,92.8c0,96.3,78.6,175.3,174.9,175.7c34.7,0.2,68.7-9.9,97.6-29.1
	c65.4,43.2,151.6,37.8,211.1-13.2c59.6,51,145.7,56.4,211.2,13.2c28.9,19.2,62.9,29.3,97.6,29.1c96.3-0.4,174.9-79.4,174.9-175.7
	c0-32.8-9.2-65-26.5-92.8C1060,336.4,1094.4,277.8,1094.5,214.2z"/>
<path class="st1" d="M427.7,282.6c0,0-52-3.7-64,0.3s-36,57-36,57l77,3l33-7L427.7,282.6z"/>
<polygon class="st2" points="695.9,635.9 698.6,509.6 779.7,507.9 779.7,635.9 "/>
<path class="st1" d="M507.1,368c6.1,8.4,7.1,19.3,7.9,29.7c1.5,20,3,40,4.5,60c1,13.4,2,27-0.3,40.3c-0.1,1.1-0.5,2.1-1,3
	c-1.1,1.6-3,2.2-4.9,2.6c-18.3,4.3-37.5,0.1-55.9-4.1c-3.4-25.3,2.1-51.1,10.8-75c5.3-14.6,11.8-28.7,18.4-42.8
	c2.7-5.8,5.2-16.2,9.6-20.7C501.1,355.9,503.8,363.6,507.1,368z"/>
<path class="st3" d="M507.1,368c6.1,8.4,7.1,19.3,7.9,29.7c1.5,20,3,40,4.5,60c1,13.4,2,27-0.3,40.3c-0.1,1.1-0.5,2.1-1,3
	c-1.1,1.6-3,2.2-4.9,2.6c-18.3,4.3-37.5,0.1-55.9-4.1c-3.4-25.3,2.1-51.1,10.8-75c5.3-14.6,11.8-28.7,18.4-42.8
	c2.7-5.8,5.2-16.2,9.6-20.7C501.1,355.9,503.8,363.6,507.1,368z"/>
<path class="st4" d="M568.8,467c4.1-4.3,8.3-8.6,13.7-11.2c6.6-3.2,14.2-3.5,21.5-4.7c5.7-1,11.3-2.6,17.1-2.9s12,0.9,16.2,4.9
	c5,4.6,6.3,11.8,7.3,18.5c2.5,16.1,4.3,33.9-4.4,47.6c-5.9,9.3-16.1,15.4-26.9,17.7c-6.7,1.4-13.6,1.4-20.4,1.4l-64.2-0.1
	c-1.2,0-0.4-18.7-0.1-20.4c0.9-5.7,3.1-11.1,6.5-15.7C544.5,489.4,557.8,478.4,568.8,467z"/>
<path class="st3" d="M568.8,467c4.1-4.3,8.3-8.6,13.7-11.2c6.6-3.2,14.2-3.5,21.5-4.7c5.7-1,11.3-2.6,17.1-2.9s12,0.9,16.2,4.9
	c5,4.6,6.3,11.8,7.3,18.5c2.5,16.1,4.3,33.9-4.4,47.6c-5.9,9.3-16.1,15.4-26.9,17.7c-6.7,1.4-13.6,1.4-20.4,1.4l-64.2-0.1
	c-1.2,0-0.4-18.7-0.1-20.4c0.9-5.7,3.1-11.1,6.5-15.7C544.5,489.4,557.8,478.4,568.8,467z"/>
<path class="st4" d="M312.2,233.5l-12.4,16.3c-8.9,11.7-19.3,24.3-33.9,26.5c-0.9,3.1,2.1,5.8,4.8,7.5
	c37.8,24.8,81.9,40.7,127.1,42.7c5.8,0.3,13-0.5,15.2-6c2-4.9-1.7-10.2-5.6-13.8c-5.9-5.4-13.4-10.6-13.9-18.5
	c-0.4-5.3,2.6-10.2,4.4-15.2c2.4-6.9,2.4-14.3,2.5-21.6c0-2.6,0-5.3-1-7.8c-1-2-2.3-3.8-4-5.3c-13.6-13.4-31.9-20-49.2-27.1
	c-5.8-2.4-16.5-10.2-21.5-3.5c-2.4,3.1-2.4,9-4.1,12.7C318.2,225.2,315.4,229.5,312.2,233.5z"/>
<path class="st3" d="M312.2,233.5l-12.4,16.3c-8.9,11.7-19.3,24.3-33.9,26.5c-0.9,3.1,2.1,5.8,4.8,7.5
	c37.8,24.8,81.9,40.7,127.1,42.7c5.8,0.3,13-0.5,15.2-6c2-4.9-1.7-10.2-5.6-13.8c-5.9-5.4-13.4-10.6-13.9-18.5
	c-0.4-5.3,2.6-10.2,4.4-15.2c2.4-6.9,2.4-14.3,2.5-21.6c0-2.6,0-5.3-1-7.8c-1-2-2.3-3.8-4-5.3c-13.6-13.4-31.9-20-49.2-27.1
	c-5.8-2.4-16.5-10.2-21.5-3.5c-2.4,3.1-2.4,9-4.1,12.7C318.2,225.2,315.4,229.5,312.2,233.5z"/>
<circle class="st4" cx="392.2" cy="176.4" r="84"/>
<path class="st1" d="M370.1,312c-12,2.6-24.4-1.1-36.2-4.7c-16.9-5.2-35.2-11.3-45.1-26c-2.3-3.4-4.2-7.4-7.8-9.4
	c-7.8-4.4-16.7,2.7-23.2,8.8c-31.6,29.8-74,49.2-96.7,86.2c-12.9,21.1-18.2,46.1-19.5,70.8c-0.7,12.5-0.4,25.3,3.3,37.3
	c11.3,36,50.9,57.1,63.2,92.8c7.5,21.7,2.1,42.6-1.1,65.3l300.4,0.6c-5.9-42.7-8.3-85.9-7.2-129c0.2-9.3,0.7-18.6,3-27.6
	c1.9-7.3,5-14.5,5.1-22c0.2-13.8-9.5-26.8-7.5-40.5s15.4-25,12.9-38.5c-3-16-6.4-33.2-13.2-48c-3.5-7.7-7.4-15.4-13.4-21.5
	s-13.4-10.1-21.2-13.5c-18.4-7.9-38.2-11.9-58.2-11.7c-1.8-0.1-3.6,0.2-5.3,0.9c-4.9,2.4-4.9,9.2-6.4,14.5
	C393.2,307,380.1,315.2,370.1,312z"/>
<rect x="487.7" y="423.9" transform="matrix(0.9065 -0.4223 0.4223 0.9065 -139.8625 247.4892)" class="st5" width="2" height="31"/>
<rect x="504.7" y="437" transform="matrix(0.9065 -0.4223 0.4223 0.9065 -157.2333 261.0826)" class="st6" width="12" height="97"/>
<path class="st4" d="M162.1,500.4c-3.7,25.7,8.1,50.8,13.7,76.2c4.2,18.8,5,38.2,5.1,57.4c0.6-0.2,0.5,0.2,1,0h205.3
	c32.9-29.3,66.6-59.1,109.9-67.6c6.2-1.2,12.5-2,18.5-4c22.8-7.7,35.7-31.4,45.7-53.3c3.5-7.8,7-17.1,2.7-24.5
	c-1.5-2.4-3.6-4.5-5.9-6.1c-13.6-10-31.2-12.7-47.2-7.3c-28.9,10.1-43,43.1-68.9,59.3c-12,7.5-26,11-38.8,16.7
	c-19.2,8.6-36,22.2-55.4,30.5c-26.3,11.2-55.8,11.8-83,20.4c9.9-11.3,13.2-27.3,11.5-42.2s-8.3-28.8-16.2-41.6
	c-7.1-11.4-16.2-22.6-29-26.8C208.2,480.2,185.4,496.1,162.1,500.4z"/>
<path class="st7" d="M313.7,215c8.6-6.6,10.2-12.2,12.4-22.9c1.3-6.6,1.5-14.2,6.3-19c9.8-9.6,28.9,1.1,39.3-7.9
	c6.5-5.6,6.2-16.3,12.2-22.3c4.5-4.5,11.3-5.4,17.6-5.7c9.5-0.4,19.1,0.1,28.5,1.5c6.7,1,13.4,2.4,20.2,2.4
	c13.6-0.1,26.4-6.1,38.6-12c-2-0.1-3.7-1.3-4.6-3.1c4.7-2.5,9.7-4.7,14.7-6.5c-1.3-4.1-10.2-0.8-10.6-5.1c0-1.1,0.4-2.2,1.2-3
	l8.6-12.3c-8.2,2.1-16.5-3.6-21.7-10.3s-8.6-14.8-14.7-20.7c-12.1-11.8-31.1-12.1-48-11.7l-31.3,0.8c-14.5,0.4-29.2,0.8-43.3,4.4
	c-6.4,1.7-12.7,4-18.1,7.9c-6.8,4.9-11.7,11.8-18.1,17.1c-8.6,7.1-19.7,11.4-26.1,20.5c-4,5.8-5.6,12.9-4.5,19.8
	c1.2,7.8,5.8,14.6,7.6,22.3c3.1,13.1-2,27.1,1,40.3c2.2,9.9,8.7,18.2,15,26.1c1.5,1.8,3.2,3.8,5.5,3.9c1.4-0.1,2.8-0.5,4.1-1.1"/>
<polygon class="st2" points="953.2,543.4 953.2,564.4 909.2,619.4 446.2,606.4 446.2,583.4 570.2,538.2 "/>
<polygon class="st3" points="953.2,543.4 953.2,564.4 909.2,619.4 446.2,606.4 446.2,585.4 906.2,596.4 "/>
<polygon class="st5" points="953.2,525.4 953.2,543.4 906.2,596.4 566.2,588.3 566.2,566.4 677.2,525.4 "/>
<polygon class="st3" points="953.2,525.4 953.2,543.4 906.2,596.4 566.2,588.3 566.2,566.4 906.2,575.4 "/>
<polygon class="st2" points="695.5,543.4 698.2,322.4 779.2,319.4 779.2,543.4 "/>
<path class="st6" d="M345.2,457.9l11,7l-6.7-12.2c1.9-1.5,4.2-2.4,6.7-2.4h0.2c0.8,0,1.5,0,2.3-0.2l3.8,2.4l-1.6-2.9
	c2.7-0.9,4.9-2.7,6.5-5l6.7,4.2l-4.2-7.7c3.9-4.7,9.2-7.6,15-7.6c7,0,13.2,4.1,17.2,10.6c2.4,3.9,6.7,6.3,11.4,6.1h0.4
	c7.7,0,13.9,8.7,13.9,19.5s-6.2,19.5-13.9,19.5c-1.7,0-3.4-0.4-4.9-1.2c-5.3-2.6-11.5-2.7-16.9-0.3c-4.6,2-9.8,2-14.3,0
	c-5.4-2.3-11.5-2.2-16.7,0.3c-1.5,0.8-3.1,1.2-4.8,1.2c-7.7,0-13.9-8.7-13.9-19.5C342.3,465.6,343.3,461.5,345.2,457.9z"/>
<path class="st3" d="M366,486.4c4-0.8,8.2-0.3,11.9,1.3c4.6,2,9.8,2,14.3,0c5.4-2.4,11.6-2.2,16.9,0.3c1.5,0.8,3.2,1.2,4.9,1.2
	c6.8,0,12.5-6.9,13.7-16c-1.4-1-2.5-2.2-3.4-3.7c-4-6.5-10.2-10.6-17.2-10.6S394,463,390,469.4c-2.4,3.9-6.7,6.3-11.4,6.2h-0.2
	C373,475.6,368.3,480,366,486.4z"/>
<path class="st3" d="M155.8,397.2c-3.3,13.4-6.6,26.8-8.3,40.5c-2.2,18.5-1.4,37.2,2.4,55.4c1.1,5.3,2.5,10.7,2.5,16.2
	s-1.7,11.2-5.7,14.8c25.5-16.7,59.8-18.8,87.1-5.5c13.3,6.5,26.6,16.8,41.3,14.4c1.4-8.2-6.6-16-4.8-24.2c1.4-5.9,7.6-9.7,9.3-15.6
	c2.2-7.5-3.5-14.7-6.1-22c-1.1-3.7-1.9-7.4-2.3-11.2c-2.1-15.5-5-31.1-10.9-45.7c-5.8-14.6-14.9-28.2-27.6-37.4
	c-7.7-5.6-16.5-9.4-25.4-12.5c-7.1-2.4-17.3-7.3-24.9-6C166.1,361.5,159.1,383.8,155.8,397.2z"/>
<path class="st1" d="M152.8,394.2c-3.3,13.4-6.6,26.8-8.3,40.5c-2.2,18.5-1.4,37.2,2.4,55.4c1.1,5.3,2.5,10.7,2.5,16.2
	s-1.7,11.2-5.7,14.8c25.5-16.7,59.8-18.8,87.1-5.5c13.3,6.5,26.6,16.8,41.3,14.4c1.4-8.2-6.6-16-4.8-24.2c1.4-5.9,7.6-9.7,9.3-15.6
	c2.2-7.5-3.5-14.7-6.1-22c-1.1-3.7-1.9-7.4-2.3-11.2c-2.1-15.5-5-31.1-10.9-45.7c-5.8-14.6-14.9-28.2-27.6-37.4
	c-7.7-5.6-16.5-9.4-25.4-12.5c-7.1-2.4-17.3-7.3-24.9-6C163.1,358.5,156.1,380.8,152.8,394.2z"/>
<g class="st8">
	<path d="M313.4,176.1c-4.8,4.8-5,12.3-6.3,19c-2,9.9-3.5,15.4-10.6,21.4c1.3,1.5,2.8,2.9,4.7,3c1.4-0.1,2.8-0.5,4.1-1.1l8.4-3.4
		c8.6-6.6,10.2-12.2,12.4-22.9c1.3-6.6,1.5-14.2,6.3-19c0.4-0.4,0.9-0.8,1.3-1.1C326.1,171.6,318.5,171.1,313.4,176.1z"/>
	<path d="M484.2,126c4.7-2.5,9.7-4.7,14.7-6.5c-1.3-4.1-10.2-0.8-10.6-5.1c0-1.1,0.4-2.2,1.2-3l8.6-12.3
		c-8.2,2.1-16.5-3.6-21.7-10.3s-8.6-14.8-14.7-20.7c-12.1-11.8-31.1-12.1-48-11.7l-31.3,0.8c-14.1,0.4-28.3,0.7-41.9,4.1
		c7.6-0.7,15.3-0.9,22.9-1.1l31.3-0.8c17-0.4,35.9-0.1,48,11.7c6.1,5.9,9.5,14,14.7,20.7c5.2,6.7,13.5,12.4,21.7,10.3l-8.6,12.3
		c-0.7,0.8-1.1,1.9-1.2,3c0.5,4.3,9.3,1,10.6,5.1c-5,1.8-9.9,4-14.7,6.5c0.9,1.8,2.6,3,4.6,3.1c-6.9,3.5-13.9,6.5-21.2,9h1.6
		c13.6-0.1,26.4-6.1,38.6-12C486.9,128.9,485.1,127.7,484.2,126z"/>
	<path d="M382.5,140.2c-6.3,0.3-13.1,1.2-17.6,5.7c-6.1,6.1-5.7,16.7-12.2,22.3c-0.3,0.2-0.6,0.5-0.9,0.7c7.3,0.4,14.7,0.8,19.9-3.7
		c6.5-5.6,6.2-16.3,12.2-22.3c1.1-1.1,2.4-2.1,3.9-2.8C386,140.1,384.2,140.2,382.5,140.2z"/>
</g>
<path class="st9" d="M680.2,419c-2,0.4-4,0.9-5.9,1.7c-42.2,16.9-41.5,127.2-41.5,127.2h-12.4c0,0-3.9-47.3-21-114.9
	c-15.4-60.8,47.6-115.2,60.4-125.6c1.4-1.2,2.2-1.8,2.2-1.8C725.6,328.9,680.2,419,680.2,419z"/>
<path class="st10" d="M666.7,307.5c-1.5-0.7-3-1.3-4.6-1.9c0,0-0.8,0.6-2.2,1.8c-12.8,10.3-75.8,64.8-60.4,125.6
	c17,67.5,20.9,114.9,20.9,114.9h7c0,0-3.9-47.3-21-114.9C591.2,372.4,653.5,318.2,666.7,307.5z"/>
<path class="st9" d="M889.5,432.9c-17.1,67.5-20.9,114.9-20.9,114.9h-12.4c0,0,0.8-115.3-44.4-128.2c-1-0.3-2-0.5-3-0.7
	c0,0-45.4-90,18.1-113.3c0,0,0.6,0.5,1.8,1.4C840.4,316.4,905,371.5,889.5,432.9z"/>
<path class="st3" d="M680.2,419c-2,0.4-4,0.9-5.9,1.7c-7.6-37.3-12.5-75.2-14.5-113.3c1.4-1.2,2.2-1.8,2.2-1.8
	C725.6,328.9,680.2,419,680.2,419z"/>
<path class="st3" d="M828.7,307c-2.6,37.9-8.2,75.6-16.9,112.7c-1-0.3-2-0.5-3-0.7c0,0-45.4-90,18.1-113.3
	C826.9,305.6,827.5,306.1,828.7,307z"/>
<path class="st5" d="M805.5,436c-4.4,17.3-9.5,35-15.4,53.2c-8.8,27.3-27.9,29.1-95.4,0c0,0-6.7-19-14.2-51.3
	c-16.3-71.1-35.9-206.5,5.8-345.6c12.4-41.8,30.1-81.9,52.6-119.3c0,0,35.6,40.9,61.8,119.3C826.8,170.6,843.4,286.4,805.5,436z"/>
<circle class="st9" cx="744.5" cy="202.8" r="56"/>
<path class="st6" d="M784.2,202.8c0,21.9-17.8,39.7-39.7,39.7c-9.2,0-18.1-3.2-25.2-9c-2.8-2.3-5.3-5.1-7.4-8.1
	c-0.9-1.4-1.8-2.8-2.6-4.2c-3-5.7-4.5-12-4.5-18.4c0-0.3,0-0.6,0-0.9c0.4-17.4,12.2-32.6,28.9-37.3c3.1-0.9,6.3-1.3,9.6-1.5h1.2
	C766.4,163,784.2,180.8,784.2,202.8C784.2,202.8,784.2,202.8,784.2,202.8z"/>
<path class="st9" d="M800.6,92.3c-63.6,30.4-114.4,0-114.4,0c12.4-41.8,30.1-81.9,52.6-119.3C738.8-26.9,774.5,14,800.6,92.3z"/>
<path class="st9" d="M805.5,436c-3,11.7-6.3,23.6-9.9,35.7c-1.7,5.8-3.6,11.6-5.5,17.5c-2.9,8.8-27.9,29.1-95.4,0
	c0,0-2.2-6.2-5.5-17.5c-2.5-8.5-5.5-20-8.7-33.9c0,0,25.1,10.7,60.8,10.7C763.2,448.7,785.1,444.4,805.5,436z"/>
<path class="st5" d="M795.5,471.7c-1.7,5.8-3.6,11.6-5.5,17.5c-2.9,8.8-27.9,29.1-95.4,0c0,0-2.2-6.2-5.5-17.5
	C689.1,471.7,757.9,491.5,795.5,471.7z"/>
<path class="st10" d="M733.7,164.5L733.7,164.5l-29,37.3c0,0.3,0,0.6,0,0.9c0,6.4,1.5,12.8,4.5,18.4l34-58.2L733.7,164.5z"/>
<path class="st10" d="M742.9,198.1l-23.6,35.4c-2.8-2.3-5.3-5.1-7.4-8.1l28.2-30.2L742.9,198.1z"/>
<path class="st10" d="M709.7,489.2c0,0-6.7-19-14.2-51.3c-16.3-71.1-35.9-206.5,5.8-345.6c11.2-37.6,26.7-73.9,46-108
	c-5.3-7.4-8.6-11.2-8.6-11.2c-22.5,37.4-40.1,77.4-52.6,119.2c-41.7,139.1-22.1,274.5-5.8,345.6c7.4,32.3,14.2,51.3,14.2,51.3
	c26.7,11.5,47.2,13.9,62.2,12.6C743.9,500.9,728.3,497.2,709.7,489.2z"/>
</svg>
