<?xml version="1.0" encoding="utf-8"?>
<!-- Generator: Adobe Illustrator 22.1.0, SVG Export Plug-In . SVG Version: 6.00 Build 0)  -->
<svg version="1.1" id="Capa_1" xmlns="http://www.w3.org/2000/svg" xmlns:xlink="http://www.w3.org/1999/xlink" x="0px" y="0px"
	 viewBox="0 0 80.7 98.8" style="enable-background:new 0 0 80.7 98.8;" xml:space="preserve">
<style type="text/css">
	.st0{opacity:5.000000e-02;}
	.st1{fill:#333333;}
</style>
<path class="st0" d="M67.1,86.9H14.2c-2.6,0-4.7-2.1-4.7-4.7V12.2c0-2.6,2.1-4.7,4.7-4.7h52.9c2.6,0,4.7,2.1,4.7,4.7v70.1
	C71.8,84.9,69.7,86.9,67.1,86.9z"/>
<g>
	<path class="st1" d="M53.2,39.3h-25c-0.6,0-1,0.4-1,1c0,0.6,0.4,1,1,1h25c0.6,0,1-0.4,1-1C54.2,39.7,53.7,39.3,53.2,39.3z"/>
	<path class="st1" d="M28.2,33.3h10c0.6,0,1-0.4,1-1c0-0.6-0.4-1-1-1h-10c-0.6,0-1,0.4-1,1C27.2,32.8,27.6,33.3,28.2,33.3z"/>
	<path class="st1" d="M53.2,47.3h-25c-0.6,0-1,0.4-1,1c0,0.6,0.4,1,1,1h25c0.6,0,1-0.4,1-1C54.2,47.7,53.7,47.3,53.2,47.3z"/>
	<path class="st1" d="M53.2,55.3h-25c-0.6,0-1,0.4-1,1s0.4,1,1,1h25c0.6,0,1-0.4,1-1S53.7,55.3,53.2,55.3z"/>
	<path class="st1" d="M53.2,63.3h-25c-0.6,0-1,0.4-1,1s0.4,1,1,1h25c0.6,0,1-0.4,1-1S53.7,63.3,53.2,63.3z"/>
	<path class="st1" d="M49.1,17.3H18.3c-0.6,0-1.1,0.5-1.1,1.1v57.7c0,0.6,0.5,1.1,1.1,1.1H63c0.6,0,1.1-0.5,1.1-1.1V32.3
		c0-0.3-0.1-0.6-0.3-0.8L49.9,17.6C49.7,17.4,49.4,17.3,49.1,17.3z M52.1,22.6l6.7,6.7c0.7,0.7,0.2,1.9-0.8,1.9h-6.7
		c-0.6,0-1.1-0.5-1.1-1.1v-6.7C50.2,22.4,51.4,21.9,52.1,22.6z M19.2,74.1V20.4c0-0.6,0.5-1.1,1.1-1.1H47c0.6,0,1.1,0.5,1.1,1.1
		v11.7c0,0.6,0.5,1.1,1.1,1.1H61c0.6,0,1.1,0.5,1.1,1.1v39.7c0,0.6-0.5,1.1-1.1,1.1H20.3C19.7,75.3,19.2,74.7,19.2,74.1z"/>
</g>
</svg>
