<?xml version="1.0" encoding="utf-8"?>
<!-- Generator: Adobe Illustrator 22.1.0, SVG Export Plug-In . SVG Version: 6.00 Build 0)  -->
<svg version="1.1" id="Capa_1" xmlns="http://www.w3.org/2000/svg" xmlns:xlink="http://www.w3.org/1999/xlink" x="0px" y="0px"
	 viewBox="0 0 420 420" style="enable-background:new 0 0 420 420;" xml:space="preserve">
<style type="text/css">
	.st0{fill:#FDC02F;}
	.st1{display:none;}
	.st2{display:inline;}
	.st3{fill:none;stroke:#FFFFFF;stroke-width:22;stroke-linecap:round;stroke-miterlimit:10;}
	.st4{fill:#FFFFFF;}
</style>
<title>newChat</title>
<g id="Capa_2_1_">
	<g id="Capa_1-2">
		<circle class="st0" cx="210" cy="210" r="210"/>
		<g class="st1">
			<g class="st2">
				<g>
					<g>
						<g>
							<line class="st3" x1="239.7" y1="161.2" x2="345.9" y2="161.2"/>
						</g>
					</g>
					<g>
						<g>
							<line class="st3" x1="292.8" y1="108.2" x2="292.8" y2="214.3"/>
						</g>
					</g>
				</g>
			</g>
		</g>
	</g>
</g>
<path class="st4" d="M330.2,115.6h-30.3V85.4c0-7.4-6.3-13.5-13.7-13.5c-7.5,0-13.7,6.1-13.7,13.5v30.3h-30.3
	c-7.5,0-13.6,6.2-13.6,13.7s6.1,13.7,13.6,13.7h30.3v30.3c0,7.4,6.3,13.5,13.7,13.5c7.5,0,13.7-6.1,13.7-13.5V143h30.3
	c7.5,0,13.6-6.2,13.6-13.7S337.7,115.6,330.2,115.6z"/>
<g>
	<path class="st4" d="M232,174.9c-15.6-14.3-22.8-24.5-23.7-45c-0.4-10.9,0.3-21.2,5.2-30.7c0.6-1.2,1.1-2.1,1.6-2.9
		c1.2-2.3-0.4-5-3-5c0,0,0,0,0,0c-31.9,0-56.6,18.6-56.6,52.3c0,33.7,25.3,61,56.6,61c13.2,0,25.3-4.9,34.9-13
		c1.8-1.5,1.6-4.3-0.4-5.5C241.5,182.9,236.6,179.1,232,174.9z"/>
	<path class="st4" d="M105.3,309.5C105.3,307.2,105.2,308.8,105.3,309.5L105.3,309.5z"/>
	<path class="st4" d="M319,311.3C319,310.7,319,306.9,319,311.3L319,311.3z"/>
	<path class="st4" d="M318.9,306.7c-1-63.5-9-83.4-68.3-95.4c-4.1-0.8-8.5,0.1-11.9,2.5c-4.7,3.4-13.3,7.9-26.6,7.9
		c-8.4,0-15-1.8-19.9-4c-10.7-4.8-22.6-5.9-33.9-2.8c-44.8,12.4-51.9,33.7-52.9,89.7c-0.1,5.3-0.1,5.5-0.2,4.9c0,0.4,0,1,0,1.8
		c0,4,1.6,7.8,4.4,10.6c9.2,9.1,35.4,26.3,102.5,26.3c66.8,0,93.1-17.1,102.4-26.2c2.9-2.8,4.5-6.6,4.5-10.7l0,0c0,0,0,0,0,0
		C319,311.6,318.9,310.8,318.9,306.7z"/>
</g>
</svg>
