<?xml version="1.0" encoding="utf-8"?>
<!-- Generator: Adobe Illustrator 22.1.0, SVG Export Plug-In . SVG Version: 6.00 Build 0)  -->
<svg version="1.1" xmlns="http://www.w3.org/2000/svg" xmlns:xlink="http://www.w3.org/1999/xlink" x="0px" y="0px"
	 viewBox="0 0 110.5 99" style="enable-background:new 0 0 110.5 99;" xml:space="preserve">
<style type="text/css">
	.st0{fill:#FFC107;}
	.st1{fill:#FFFFFF;}
</style>
<g id="Capa_2">
</g>
<g id="Layer_1">
	<title>icon/Solid Active</title>
	<desc>Created with Sketch.</desc>
	<g>
		<g>
			<g id="XMLID_1_">
				<g>
					<path class="st0" d="M99.1,45.3c1.5,3,1.5,6.4-0.4,9.5L80.5,86.2c-1.5,2.7-4.5,4.5-8,4.5h-36c-3,0-6.4-1.5-8-4.5L10.4,54.8
						c-1.5-3-1.5-6.4,0-9.5l18.2-31.4c1.5-2.7,4.9-4.5,8-4.5H73c3,0,6.4,1.9,8,4.5L99.1,45.3z M97.5,50.6c0-0.4,0-0.7,0-1.1
						c-0.1-1.2-0.3-2.3-0.8-3.3c-0.1-0.2-0.2-0.3-0.3-0.5l-17-29.6c-1.5-3-4.5-4.5-7.6-4.5H37.7c-3,0-6.1,1.9-7.6,4.5l-17,29.5
						c-0.6,1-0.9,2.1-1.1,3.3c-0.1,0.8-0.1,1.5,0,2.3c0.1,1.1,0.5,2.2,1.1,3.3l17,29.5c1.5,3,4.6,4.5,7.6,4.5h34.1
						c3.1,0,6.1-1.8,7.6-4.5l17-29.5c0.1-0.2,0.2-0.3,0.3-0.5C97.2,52.9,97.4,51.7,97.5,50.6z"/>
					<path class="st1" d="M97.5,49.5c0,0.3,0,0.7,0,1.1c-0.1,1.1-0.3,2.3-0.8,3.3c-0.1,0.2-0.2,0.3-0.3,0.5l-17,29.4
						c-1.5,2.6-4.6,4.5-7.6,4.5H37.7c-3.1,0-6.1-1.5-7.6-4.5l-17-29.5c-0.6-1-0.9-2-1.1-3.2c-0.1-0.8-0.1-1.5,0-2.3
						c0.1-1.1,0.5-2.2,1.1-3.2l17-29.5c1.5-2.7,4.5-4.5,7.6-4.5h34.1c3,0,6.1,1.5,7.6,4.5l17,29.5c0.1,0.2,0.2,0.3,0.3,0.5
						C97.2,47.3,97.4,48.4,97.5,49.5z M54.4,80.7c12.1-0.2,11.7-2.9,11.7-3.7s-0.3-0.9-0.3-0.9s0-8.1,0-8.7s-0.5-0.8-0.5-0.8
						s0-36.3,0-36.8S65,29.1,65,29.1s2.9-0.8,0.7-4.7c-0.9-1.6-3.2-2.6-5.5-3.1c-2.3-0.5-4.7-0.7-5.8-0.8c0,0-0.1,0-0.3,0
						c-0.2,0-0.3,0-0.3,0c-2.2,0.1-9.4,0.6-11.3,3.9c-2.2,3.9,0.7,4.7,0.7,4.7s-0.3,0.2-0.3,0.7s0,36.8,0,36.8s-0.5,0.2-0.5,0.8
						s0,8.7,0,8.7s-0.3,0.1-0.3,0.9c0,0.1,0,0.1,0,0.2c0,1,0.4,3.3,11.7,3.5c0.1,0,0.2,0,0.3,0C54.2,80.7,54.3,80.7,54.4,80.7z"/>
					<path class="st0" d="M96.7,53.9c0.5-1,0.8-2.2,0.8-3.3C97.4,51.7,97.2,52.9,96.7,53.9z"/>
					<path class="st0" d="M96.4,54.4l-17,29.5c-1.5,2.7-4.5,4.5-7.6,4.5H37.7c-3,0-6.1-1.5-7.6-4.5l-17-29.5c-0.6-1-0.9-2.1-1.1-3.3
						c0.1,1.1,0.5,2.2,1.1,3.2l17,29.5c1.5,3,4.5,4.5,7.6,4.5h34.1c3,0,6.1-1.9,7.6-4.5L96.4,54.4z"/>
					<path class="st0" d="M66.1,77c0,0.8,0.4,3.5-11.7,3.7c-0.1,0-0.2,0-0.3,0c-0.1,0-0.2,0-0.3,0c-11.3-0.2-11.7-2.6-11.7-3.5
						c0-0.1,0-0.1,0-0.2c0-0.8,0.3-0.9,0.3-0.9s0-8.1,0-8.7s0.5-0.8,0.5-0.8s0-36.3,0-36.8s0.3-0.7,0.3-0.7s-2.9-0.8-0.7-4.7
						c1.9-3.3,9.1-3.8,11.3-3.9c0,0,0.1,0,0.3,0c0.2,0,0.3,0,0.3,0c1.1,0,3.4,0.2,5.8,0.8c2.3,0.5,4.6,1.5,5.5,3.1
						c2.2,3.9-0.7,4.7-0.7,4.7s0.3,0.2,0.3,0.7s0,36.8,0,36.8s0.5,0.2,0.5,0.8s0,8.7,0,8.7S66.1,76.2,66.1,77z M61,39.3L61,39.3
						v-5.1V34v-0.2v-0.3v-0.1c0-0.3-0.2-0.6-0.5-0.7l-6.1-1.6c-0.1-0.1-0.2-0.1-0.4,0l-5.8,1.4c-0.3,0.1-0.5,0.4-0.5,0.7v0.2V34v0.1
						v5v0.2c0,0.2,0.2,0.4,0.4,0.4h12.5C60.8,39.7,61,39.5,61,39.3z"/>
					<path class="st0" d="M61,39.2L61,39.2c0,0.3-0.2,0.5-0.4,0.5H48.1c-0.2,0-0.4-0.2-0.4-0.4v-0.2c0,0.2,0.2,0.4,0.4,0.4h12.6
						C60.9,39.6,61,39.4,61,39.2z"/>
					<path class="st1" d="M61,34.2v5c0,0.2-0.1,0.4-0.3,0.3H48.1c-0.2,0-0.4-0.2-0.4-0.4v-5V34c0-0.2,0.2-0.4,0.4-0.4h12.6
						c0,0,0.1,0,0.1,0c0,0,0,0,0.1,0.1C61,33.8,61,33.9,61,34V34.2z M60.4,37.3V35c0-0.2-0.1-0.2-0.2-0.3c0,0,0,0,0,0h-0.1H48.6
						c0,0-0.1,0-0.1,0c0,0-0.1,0-0.1,0c0,0,0,0,0,0c0,0,0,0,0,0.1c0,0,0,0.1,0,0.1v2.3c0,0.1,0.1,0.2,0.3,0.2h11.5h0.1
						C60.3,37.6,60.4,37.5,60.4,37.3z"/>
					<path class="st0" d="M61,33.8V34C61,33.9,61,33.8,61,33.8C60.9,33.7,61,33.7,61,33.8z"/>
					<path class="st1" d="M61,33.5v0.3c0-0.1-0.1-0.1-0.1-0.1c0-0.1,0-0.1-0.1-0.1c0,0,0,0-0.1,0H48.1c-0.2,0-0.4,0.2-0.4,0.4v-0.6
						c0-0.3,0.2-0.6,0.5-0.7l5.8-1.4c0.1,0,0.2,0,0.4,0l6.1,1.6C60.8,32.9,61,33.2,61,33.5z"/>
					<path class="st0" d="M61,33.4L61,33.4c0-0.2-0.2-0.5-0.5-0.5l-6.1-1.6c-0.2,0-0.3,0-0.4,0l-5.8,1.4c-0.3,0.1-0.5,0.4-0.5,0.7
						v-0.2c0-0.3,0.2-0.6,0.5-0.7l5.8-1.4c0.2-0.1,0.3-0.1,0.4,0l6.1,1.6C60.8,32.8,61,33.1,61,33.4z"/>
					<path class="st0" d="M60.8,33.6c0.1,0,0.1,0,0.1,0.1C60.8,33.7,60.8,33.6,60.8,33.6z"/>
					<path class="st0" d="M60.4,35v2.3c0,0.1-0.1,0.2-0.3,0.2H48.6c-0.1,0-0.3-0.1-0.3-0.2V35c0,0,0-0.1,0-0.1c0,0,0-0.1,0-0.1
						c0,0,0,0,0,0c0,0,0.1,0,0.1,0c0,0,0.1,0,0.1,0h11.5c0.1,0,0.1,0,0.1,0C60.3,34.8,60.4,34.9,60.4,35z"/>
					<path class="st0" d="M60.4,37.3c0,0.2-0.1,0.3-0.2,0.2h-0.1C60.3,37.5,60.4,37.4,60.4,37.3z"/>
					<path class="st0" d="M60.4,35c0-0.1-0.1-0.2-0.2-0.3C60.3,34.8,60.4,34.8,60.4,35z"/>
					<path class="st1" d="M60.2,34.7c0,0-0.1,0-0.1,0L60.2,34.7C60.2,34.7,60.2,34.7,60.2,34.7z"/>
					<path class="st1" d="M48.5,34.7C48.5,34.7,48.5,34.8,48.5,34.7C48.4,34.8,48.5,34.7,48.5,34.7z"/>
					<path class="st0" d="M48.4,34.8C48.3,34.8,48.3,34.9,48.4,34.8C48.3,34.9,48.3,34.8,48.4,34.8z"/>
					<path class="st0" d="M48.3,37.3c0,0.1,0.2,0.2,0.3,0.2C48.4,37.5,48.3,37.4,48.3,37.3z"/>
				</g>
				<g>
				</g>
			</g>
		</g>
	</g>
</g>
</svg>
