<?xml version="1.0" standalone="no"?>
<!DOCTYPE svg PUBLIC "-//W3C//DTD SVG 20010904//EN"
 "http://www.w3.org/TR/2001/REC-SVG-20010904/DTD/svg10.dtd">
<svg version="1.0" xmlns="http://www.w3.org/2000/svg"
 width="1024.000000pt" height="1024.000000pt" viewBox="0 0 1024.000000 1024.000000"
 preserveAspectRatio="xMidYMid meet">
<metadata>
Created by potrace 1.11, written by Peter Selinger 2001-2013
</metadata>
<g transform="translate(0.000000,1024.000000) scale(0.100000,-0.100000)"
fill="#000000" stroke="none">
<path d="M3280 8885 c-214 -44 -396 -157 -525 -325 -47 -62 -1732 -2980 -1776
-3077 -95 -208 -99 -465 -10 -682 25 -61 1697 -2971 1764 -3071 44 -64 162
-179 232 -225 86 -57 202 -104 308 -126 88 -18 162 -19 1844 -19 1897 0 1812
-2 1974 54 159 55 335 194 425 336 79 123 1707 2955 1741 3027 48 105 74 224
74 347 0 123 -13 203 -51 308 -33 91 -1725 3030 -1806 3136 -102 135 -272 248
-454 304 l-75 23 -1800 2 c-1472 1 -1812 -1 -1865 -12z m2098 -670 c407 -43
700 -145 850 -296 90 -91 159 -262 149 -368 -6 -67 -22 -102 -76 -165 -28 -32
-42 -59 -46 -88 -3 -24 -5 -871 -3 -1883 l3 -1840 28 -49 27 -49 0 -436 c0
-354 3 -444 15 -476 71 -198 -97 -332 -500 -399 -423 -71 -1111 -64 -1491 14
-207 43 -347 109 -400 190 -35 53 -44 137 -20 194 14 33 16 97 16 478 l0 439
25 47 25 47 0 1873 c0 1387 -3 1879 -11 1895 -7 12 -27 39 -46 61 -47 51 -63
94 -63 164 0 96 46 219 118 319 61 83 219 176 394 232 295 94 675 130 1006 96z"/>
<path d="M4801 7065 c-173 -43 -300 -80 -310 -89 -14 -15 -16 -57 -19 -340 -2
-267 0 -325 11 -335 11 -8 184 -10 673 -9 l659 3 3 321 c2 311 2 321 -18 339
-24 22 -618 185 -670 184 -19 -1 -167 -34 -329 -74z m954 -430 l0 -140 -610 0
-610 0 -3 129 c-1 72 0 136 2 143 4 11 119 13 613 11 l608 -3 0 -140z"/>
</g>
</svg>
